<svg width="28" height="31" viewBox="0 0 28 31" fill="none" xmlns="http://www.w3.org/2000/svg">
<path d="M3.53886 14.7209H4.70165V15.8837H3.53886V14.7209ZM2.37607 14.7209H3.53886V15.8837H2.37607V14.7209ZM2.37607 15.8837H3.53886V17.0465H2.37607V15.8837ZM3.53886 15.8837H4.70165V17.0465H3.53886V15.8837ZM3.53886 17.0465H4.70165V18.2093H3.53886V17.0465ZM2.37607 17.0465H3.53886V18.2093H2.37607V17.0465ZM2.37607 18.2093H3.53886V19.3721H2.37607V18.2093ZM3.53886 18.2093H4.70165V19.3721H3.53886V18.2093ZM3.53886 19.3721H4.70165V20.5349H3.53886V19.3721ZM2.37607 19.3721H3.53886V20.5349H2.37607V19.3721ZM2.37607 20.5349H3.53886V21.6977H2.37607V20.5349ZM3.53886 20.5349H4.70165V21.6977H3.53886V20.5349ZM3.53886 21.6977H4.70165V22.8605H3.53886V21.6977ZM2.37607 21.6977H3.53886V22.8605H2.37607V21.6977ZM1.21328 14.7209H2.37607V15.8837H1.21328V14.7209ZM0.050486 14.7209H1.21328V15.8837H0.050486V14.7209ZM0.050486 15.8837H1.21328V17.0465H0.050486V15.8837ZM1.21328 15.8837H2.37607V17.0465H1.21328V15.8837ZM1.21328 17.0465H2.37607V18.2093H1.21328V17.0465ZM0.050486 17.0465H1.21328V18.2093H0.050486V17.0465ZM0.050486 18.2093H1.21328V19.3721H0.050486V18.2093ZM1.21328 18.2093H2.37607V19.3721H1.21328V18.2093ZM1.21328 19.3721H2.37607V20.5349H1.21328V19.3721ZM0.050486 19.3721H1.21328V20.5349H0.050486V19.3721ZM0.050486 20.5349H1.21328V21.6977H0.050486V20.5349ZM1.21328 20.5349H2.37607V21.6977H1.21328V20.5349ZM1.21328 21.6977H2.37607V22.8605H1.21328V21.6977ZM0.050486 21.6977H1.21328V22.8605H0.050486V21.6977ZM3.53886 22.8605H4.70165V24.0233H3.53886V22.8605ZM2.37607 22.8605H3.53886V24.0233H2.37607V22.8605ZM2.37607 24.0233H3.53886V25.186H2.37607V24.0233ZM3.53886 24.0233H4.70165V25.186H3.53886V24.0233ZM4.70165 24.0233H5.86444V25.186H4.70165V24.0233ZM2.37607 25.186H3.53886V26.3488H2.37607V25.186ZM3.53886 25.186H4.70165V26.3488H3.53886V25.186ZM4.70165 25.186H5.86444V26.3488H4.70165V25.186ZM5.86444 25.186H7.02723V26.3488H5.86444V25.186ZM7.02723 26.3488H8.19002V27.5116H7.02723V26.3488ZM5.86444 26.3488H7.02723V27.5116H5.86444V26.3488ZM4.70165 26.3488H5.86444V27.5116H4.70165V26.3488ZM3.53886 26.3488H4.70165V27.5116H3.53886V26.3488ZM7.02723 27.5116H8.19002V28.6744H7.02723V27.5116ZM8.19002 27.5116H9.35281V28.6744H8.19002V27.5116ZM8.19002 28.6744H9.35281V29.8372H8.19002V28.6744ZM7.02723 28.6744H8.19002V29.8372H7.02723V28.6744ZM9.35281 27.5116H10.5156V28.6744H9.35281V27.5116ZM10.5156 27.5116H11.6784V28.6744H10.5156V27.5116ZM10.5156 28.6744H11.6784V29.8372H10.5156V28.6744ZM9.35281 28.6744H10.5156V29.8372H9.35281V28.6744ZM11.6784 27.5116H12.8412V28.6744H11.6784V27.5116ZM12.8412 27.5116H14.004V28.6744H12.8412V27.5116ZM12.8412 28.6744H14.004V29.8372H12.8412V28.6744ZM11.6784 28.6744H12.8412V29.8372H11.6784V28.6744ZM14.004 27.5116H15.1668V28.6744H14.004V27.5116ZM15.1668 27.5116H16.3296V28.6744H15.1668V27.5116ZM15.1668 28.6744H16.3296V29.8372H15.1668V28.6744ZM14.004 28.6744H15.1668V29.8372H14.004V28.6744ZM16.3296 27.5116H17.4923V28.6744H16.3296V27.5116ZM18.6551 27.5116H19.8179V28.6744H18.6551V27.5116ZM18.6551 28.6744H19.8179V29.8372H18.6551V28.6744ZM16.3296 28.6744H17.4923V29.8372H16.3296V28.6744ZM19.8179 27.5116H20.9807V28.6744H19.8179V27.5116ZM20.9807 27.5116H22.1435V28.6744H20.9807V27.5116ZM22.1435 26.3488H23.3063V27.5116H22.1435V26.3488ZM23.3063 24.0233H24.4691V25.186H23.3063V24.0233ZM24.4691 22.8605H25.6319V24.0233H24.4691V22.8605ZM24.4691 24.0233H25.6319V25.186H24.4691V24.0233ZM5.86444 27.5116H7.02723V28.6744H5.86444V27.5116ZM1.21328 22.8605H2.37607V24.0233H1.21328V22.8605ZM4.70165 27.5116H5.86444V28.6744H4.70165V27.5116ZM5.86444 28.6744H7.02723V29.8372H5.86444V28.6744ZM23.3063 25.186H24.4691V26.3488H23.3063V25.186ZM1.21328 24.0233H2.37607V25.186H1.21328V24.0233ZM0.050486 22.8605H1.21328V24.0233H0.050486V22.8605ZM1.21328 25.186H2.37607V26.3488H1.21328V25.186ZM2.37607 26.3488H3.53886V27.5116H2.37607V26.3488ZM3.53886 27.5116H4.70165V28.6744H3.53886V27.5116ZM8.19002 26.3488H9.35281V27.5116H8.19002V26.3488ZM4.70165 22.8605H5.86444V24.0233H4.70165V22.8605ZM20.9807 26.3488H22.1435V27.5116H20.9807V26.3488ZM19.8179 28.6744H20.9807V29.8372H19.8179V28.6744ZM8.19002 29.8372H9.35281V31H8.19002V29.8372ZM9.35281 29.8372H10.5156V31H9.35281V29.8372ZM10.5156 29.8372H11.6784V31H10.5156V29.8372ZM11.6784 29.8372H12.8412V31H11.6784V29.8372ZM12.8412 29.8372H14.004V31H12.8412V29.8372ZM14.004 29.8372H15.1668V31H14.004V29.8372ZM15.1668 29.8372H16.3296V31H15.1668V29.8372ZM16.3296 29.8372H17.4923V31H16.3296V29.8372ZM3.53886 14.7209V13.5581H4.70165V14.7209H3.53886ZM3.53886 13.5581V12.3953H4.70165V13.5581H3.53886ZM3.53886 12.3953V11.2326H4.70165V12.3953H3.53886ZM3.53886 11.2326V10.0698H4.70165V11.2326H3.53886ZM0.050486 14.7209V13.5581H1.21328V14.7209H0.050486ZM0.050486 13.5581V12.3953H1.21328V13.5581H0.050486ZM0.050486 12.3953V11.2326H1.21328V12.3953H0.050486ZM3.53886 10.0698V8.90698H4.70165V10.0698H3.53886ZM2.37607 10.0698V8.90698H3.53886V10.0698H2.37607ZM2.37607 8.90698V7.74419H3.53886V8.90698H2.37607ZM3.53886 8.90698V7.74419H4.70165V8.90698H3.53886ZM4.70165 8.90698V7.74419H5.86444V8.90698H4.70165ZM2.37607 7.74419V6.5814H3.53886V7.74419H2.37607ZM3.53886 7.74419V6.5814H4.70165V7.74419H3.53886ZM4.70165 7.74419V6.5814H5.86444V7.74419H4.70165ZM5.86444 7.74419V6.5814H7.02723V7.74419H5.86444ZM5.86444 6.5814V5.4186H7.02723V6.5814H5.86444ZM4.70165 6.5814V5.4186H5.86444V6.5814H4.70165ZM3.53886 6.5814V5.4186H4.70165V6.5814H3.53886ZM7.02723 5.4186V4.25581H8.19002V5.4186H7.02723ZM8.19002 4.25581V3.09302H9.35281V4.25581H8.19002ZM7.02723 4.25581V3.09302H8.19002V4.25581H7.02723ZM5.86444 5.4186V4.25581H7.02723V5.4186H5.86444ZM1.21328 10.0698V8.90698H2.37607V10.0698H1.21328ZM4.70165 5.4186V4.25581H5.86444V5.4186H4.70165ZM5.86444 4.25581V3.09302H7.02723V4.25581H5.86444ZM4.70165 10.0698V8.90698H5.86444V10.0698H4.70165ZM8.19002 3.09302V1.93023H9.35281V3.09302H8.19002ZM9.35281 3.09302V1.93023H10.5156V3.09302H9.35281ZM1.21328 10.0698H2.37607V11.2326H1.21328V10.0698ZM2.37607 10.0698H3.53886V11.2326H2.37607V10.0698ZM2.37607 11.2326H3.53886V12.3953H2.37607V11.2326ZM2.37607 12.3953H3.53886V13.5581H2.37607V12.3953ZM2.37607 13.5581H3.53886V14.7209H2.37607V13.5581ZM1.21328 13.5581H2.37607V14.7209H1.21328V13.5581ZM1.21328 12.3953H2.37607V13.5581H1.21328V12.3953ZM1.21328 11.2326H2.37607V12.3953H1.21328V11.2326ZM7.02723 11.2326H8.19002V12.3953H7.02723V11.2326ZM8.19002 11.2326H9.35281V12.3953H8.19002V11.2326ZM8.19002 12.3953H9.35281V13.5581H8.19002V12.3953ZM7.02723 12.3953H8.19002V13.5581H7.02723V12.3953ZM9.35281 11.2326H10.5156V12.3953H9.35281V11.2326ZM10.5156 12.3953H11.6784V13.5581H10.5156V12.3953ZM9.35281 12.3953H10.5156V13.5581H9.35281V12.3953ZM10.5156 11.2326H11.6784V12.3953H10.5156V11.2326ZM8.19002 15.8837H9.35281V17.0465H8.19002V15.8837ZM7.02723 15.8837H8.19002V17.0465H7.02723V15.8837ZM7.02723 17.0465H8.19002V18.2093H7.02723V17.0465ZM8.19002 17.0465H9.35281V18.2093H8.19002V17.0465ZM10.5156 15.8837H11.6784V17.0465H10.5156V15.8837ZM9.35281 15.8837H10.5156V17.0465H9.35281V15.8837ZM10.5156 17.0465H11.6784V18.2093H10.5156V17.0465ZM9.35281 17.0465H10.5156V18.2093H9.35281V17.0465ZM11.6784 11.2326H12.8412V12.3953H11.6784V11.2326ZM12.8412 11.2326H14.004V12.3953H12.8412V11.2326ZM12.8412 12.3953H14.004V13.5581H12.8412V12.3953ZM12.8412 13.5581H14.004V14.7209H12.8412V13.5581ZM12.8412 14.7209H14.004V15.8837H12.8412V14.7209ZM12.8412 15.8837H14.004V17.0465H12.8412V15.8837ZM12.8412 17.0465H14.004V18.2093H12.8412V17.0465ZM11.6784 17.0465H12.8412V18.2093H11.6784V17.0465ZM11.6784 15.8837H12.8412V17.0465H11.6784V15.8837ZM11.6784 14.7209H12.8412V15.8837H11.6784V14.7209ZM11.6784 13.5581H12.8412V14.7209H11.6784V13.5581ZM11.6784 12.3953H12.8412V13.5581H11.6784V12.3953ZM11.6784 10.0698H12.8412V11.2326H11.6784V10.0698ZM11.6784 8.90698H12.8412V10.0698H11.6784V8.90698ZM12.8412 8.90698H14.004V10.0698H12.8412V8.90698ZM12.8412 10.0698H14.004V11.2326H12.8412V10.0698ZM12.8412 7.74419H14.004V8.90698H12.8412V7.74419ZM12.8412 6.5814H14.004V7.74419H12.8412V6.5814ZM11.6784 6.5814H12.8412V7.74419H11.6784V6.5814ZM11.6784 7.74419H12.8412V8.90698H11.6784V7.74419ZM11.6784 18.2093H12.8412V19.3721H11.6784V18.2093ZM12.8412 18.2093H14.004V19.3721H12.8412V18.2093ZM12.8412 19.3721H14.004V20.5349H12.8412V19.3721ZM11.6784 19.3721H12.8412V20.5349H11.6784V19.3721ZM11.6784 20.5349H12.8412V21.6977H11.6784V20.5349ZM12.8412 20.5349H14.004V21.6977H12.8412V20.5349ZM12.8412 21.6977H14.004V22.8605H12.8412V21.6977ZM11.6784 21.6977H12.8412V22.8605H11.6784V21.6977ZM14.004 5.4186H15.1668V6.5814H14.004V5.4186ZM14.004 4.25581H15.1668V5.4186H14.004V4.25581ZM15.1668 4.25581H16.3296V5.4186H15.1668V4.25581ZM14.004 8.90698H15.1668V10.0698H14.004V8.90698ZM15.1668 10.0698H16.3296V11.2326H15.1668V10.0698ZM15.1668 11.2326H16.3296V12.3953H15.1668V11.2326ZM14.004 12.3953H15.1668V13.5581H14.004V12.3953ZM14.004 13.5581H15.1668V14.7209H14.004V13.5581ZM14.004 14.7209H15.1668V15.8837H14.004V14.7209ZM14.004 10.0698H15.1668V11.2326H14.004V10.0698ZM14.004 11.2326H15.1668V12.3953H14.004V11.2326ZM15.1668 12.3953H16.3296V13.5581H15.1668V12.3953ZM15.1668 13.5581H16.3296V14.7209H15.1668V13.5581ZM15.1668 14.7209H16.3296V15.8837H15.1668V14.7209ZM14.004 15.8837H15.1668V17.0465H14.004V15.8837ZM14.004 17.0465H15.1668V18.2093H14.004V17.0465ZM15.1668 17.0465H16.3296V18.2093H15.1668V17.0465ZM15.1668 15.8837H16.3296V17.0465H15.1668V15.8837ZM15.1668 18.2093H16.3296V19.3721H15.1668V18.2093ZM15.1668 19.3721H16.3296V20.5349H15.1668V19.3721ZM14.004 19.3721H15.1668V20.5349H14.004V19.3721ZM14.004 18.2093H15.1668V19.3721H14.004V18.2093ZM14.004 20.5349H15.1668V21.6977H14.004V20.5349ZM15.1668 20.5349H16.3296V21.6977H15.1668V20.5349ZM15.1668 21.6977H16.3296V22.8605H15.1668V21.6977ZM14.004 21.6977H15.1668V22.8605H14.004V21.6977ZM12.8412 22.8605H14.004V24.0233H12.8412V22.8605ZM11.6784 22.8605H12.8412V24.0233H11.6784V22.8605ZM11.6784 24.0233H12.8412V25.186H11.6784V24.0233ZM12.8412 24.0233H14.004V25.186H12.8412V24.0233ZM10.5156 24.0233H11.6784V25.186H10.5156V24.0233ZM9.35281 24.0233H10.5156V25.186H9.35281V24.0233ZM10.5156 22.8605H11.6784V24.0233H10.5156V22.8605ZM16.3296 3.09302H17.4923V4.25581H16.3296V3.09302ZM16.3296 1.93023H17.4923V3.09302H16.3296V1.93023ZM17.4923 1.93023H18.6551V3.09302H17.4923V1.93023ZM17.4923 3.09302H18.6551V4.25581H17.4923V3.09302ZM19.8179 3.09302H20.9807V4.25581H19.8179V3.09302ZM18.6551 3.09302H19.8179V4.25581H18.6551V3.09302ZM18.6551 1.93023H19.8179V3.09302H18.6551V1.93023ZM19.8179 4.25581H20.9807V5.4186H19.8179V4.25581ZM18.6551 4.25581H19.8179V5.4186H18.6551V4.25581ZM19.8179 5.4186H20.9807V6.5814H19.8179V5.4186ZM20.9807 4.25581H22.1435V5.4186H20.9807V4.25581ZM22.1435 4.25581H23.3063V5.4186H22.1435V4.25581ZM20.9807 5.4186H22.1435V6.5814H20.9807V5.4186ZM23.3063 3.09302H24.4691V4.25581H23.3063V3.09302ZM24.4691 1.93023H25.6319V3.09302H24.4691V1.93023ZM15.1668 3.09302H16.3296V4.25581H15.1668V3.09302ZM12.8412 5.4186H14.004V6.5814H12.8412V5.4186ZM14.004 22.8605H15.1668V24.0233H14.004V22.8605ZM14.004 6.5814H15.1668V7.74419H14.004V6.5814ZM16.3296 4.25581H17.4923V5.4186H16.3296V4.25581ZM10.5156 1.93023H11.6784V3.09302H10.5156V1.93023ZM17.4923 13.5581H18.6551V14.7209H17.4923V13.5581ZM17.4923 14.7209H18.6551V15.8837H17.4923V14.7209ZM16.3296 14.7209H17.4923V15.8837H16.3296V14.7209ZM18.6551 13.5581H19.8179V14.7209H18.6551V13.5581ZM23.3063 11.2326H24.4691V12.3953H23.3063V11.2326ZM24.4691 11.2326H25.6319V12.3953H24.4691V11.2326ZM24.4691 12.3953H25.6319V13.5581H24.4691V12.3953ZM23.3063 12.3953H24.4691V13.5581H23.3063V12.3953ZM25.6319 13.5581H26.7947V14.7209H25.6319V13.5581ZM26.7947 13.5581H27.9575V14.7209H26.7947V13.5581ZM26.7947 14.7209H27.9575V15.8837H26.7947V14.7209ZM25.6319 14.7209H26.7947V15.8837H25.6319V14.7209ZM24.4691 14.7209H25.6319V15.8837H24.4691V14.7209ZM23.3063 13.5581H24.4691V14.7209H23.3063V13.5581ZM24.4691 13.5581H25.6319V14.7209H24.4691V13.5581ZM23.3063 14.7209H24.4691V15.8837H23.3063V14.7209ZM26.7947 15.8837H27.9575V17.0465H26.7947V15.8837ZM26.7947 17.0465H27.9575V18.2093H26.7947V17.0465ZM26.7947 18.2093H27.9575V19.3721H26.7947V18.2093ZM26.7947 19.3721H27.9575V20.5349H26.7947V19.3721ZM25.6319 19.3721H26.7947V20.5349H25.6319V19.3721ZM25.6319 18.2093H26.7947V19.3721H25.6319V18.2093ZM25.6319 17.0465H26.7947V18.2093H25.6319V17.0465ZM25.6319 15.8837H26.7947V17.0465H25.6319V15.8837ZM23.3063 15.8837H24.4691V17.0465H23.3063V15.8837ZM24.4691 15.8837H25.6319V17.0465H24.4691V15.8837ZM24.4691 17.0465H25.6319V18.2093H24.4691V17.0465ZM24.4691 18.2093H25.6319V19.3721H24.4691V18.2093ZM24.4691 19.3721H25.6319V20.5349H24.4691V19.3721ZM23.3063 18.2093H24.4691V19.3721H23.3063V18.2093ZM23.3063 17.0465H24.4691V18.2093H23.3063V17.0465ZM25.6319 20.5349H26.7947V21.6977H25.6319V20.5349ZM25.6319 21.6977H26.7947V22.8605H25.6319V21.6977ZM24.4691 20.5349H25.6319V21.6977H24.4691V20.5349ZM23.3063 19.3721H24.4691V20.5349H23.3063V19.3721ZM24.4691 21.6977H25.6319V22.8605H24.4691V21.6977ZM23.3063 20.5349H24.4691V21.6977H23.3063V20.5349ZM23.3063 21.6977H24.4691V22.8605H23.3063V21.6977ZM23.3063 22.8605H24.4691V24.0233H23.3063V22.8605ZM24.4691 25.186H25.6319V26.3488H24.4691V25.186ZM23.3063 26.3488H24.4691V27.5116H23.3063V26.3488ZM22.1435 27.5116H23.3063V28.6744H22.1435V27.5116ZM22.1435 25.186H23.3063V26.3488H22.1435V25.186ZM17.4923 27.5116H18.6551V28.6744H17.4923V27.5116ZM17.4923 28.6744H18.6551V29.8372H17.4923V28.6744ZM17.4923 29.8372H18.6551V31H17.4923V29.8372ZM18.6551 12.3953H19.8179V13.5581H18.6551V12.3953ZM19.8179 11.2326H20.9807V12.3953H19.8179V11.2326ZM19.8179 12.3953H20.9807V13.5581H19.8179V12.3953ZM20.9807 10.0698H22.1435V11.2326H20.9807V10.0698ZM22.1435 8.90698H23.3063V10.0698H22.1435V8.90698ZM22.1435 10.0698H23.3063V11.2326H22.1435V10.0698ZM23.3063 10.0698H24.4691V11.2326H23.3063V10.0698ZM20.9807 11.2326H22.1435V12.3953H20.9807V11.2326ZM23.3063 8.90698H24.4691V10.0698H23.3063V8.90698ZM24.4691 10.0698H25.6319V11.2326H24.4691V10.0698ZM25.6319 11.2326H26.7947V12.3953H25.6319V11.2326ZM26.7947 12.3953H27.9575V13.5581H26.7947V12.3953ZM25.6319 12.3953H26.7947V13.5581H25.6319V12.3953ZM16.3296 15.8837H17.4923V17.0465H16.3296V15.8837ZM15.1668 5.4186H16.3296V6.5814H15.1668V5.4186ZM17.4923 4.25581H18.6551V5.4186H17.4923V4.25581ZM18.6551 5.4186H19.8179V6.5814H18.6551V5.4186ZM19.8179 6.5814H20.9807V7.74419H19.8179V6.5814ZM18.6551 6.5814H19.8179V7.74419H18.6551V6.5814ZM17.4923 5.4186H18.6551V6.5814H17.4923V5.4186ZM22.1435 3.09302H23.3063V4.25581H22.1435V3.09302ZM23.3063 1.93023H24.4691V3.09302H23.3063V1.93023ZM24.4691 0.767442H25.6319V1.93023H24.4691V0.767442ZM16.3296 5.4186H17.4923V6.5814H16.3296V5.4186ZM17.4923 6.5814H18.6551V7.74419H17.4923V6.5814ZM18.6551 7.74419H19.8179V8.90698H18.6551V7.74419ZM20.9807 28.6744H22.1435V29.8372H20.9807V28.6744ZM25.6319 22.8605H26.7947V24.0233H25.6319V22.8605ZM26.7947 20.5349H27.9575V21.6977H26.7947V20.5349ZM18.6551 29.8372H19.8179V31H18.6551V29.8372ZM16.3296 13.5581H17.4923V14.7209H16.3296V13.5581ZM17.4923 12.3953H18.6551V13.5581H17.4923V12.3953ZM18.6551 11.2326H19.8179V12.3953H18.6551V11.2326ZM19.8179 10.0698H20.9807V11.2326H19.8179V10.0698ZM20.9807 8.90698H22.1435V10.0698H20.9807V8.90698ZM15.1668 8.90698H16.3296V10.0698H15.1668V8.90698ZM15.1668 7.74419H16.3296V8.90698H15.1668V7.74419ZM15.1668 6.5814H16.3296V7.74419H15.1668V6.5814ZM14.004 7.74419H15.1668V8.90698H14.004V7.74419Z" fill="black"/>
</svg>
